<svg width='50px' height='50px' id="logosandtypes_com" xmlns="http://www.w3.org/2000/svg" viewBox="0 0 150 150"><style>.st1{fill:#ee3424}</style><g id="Layer_2"><path id="Layer_3" d="M0 0h150v150H0V0z" fill="none"/></g><g id="alfa_bank"><path class="st1" d="M35.2 120.7c-.7 0-1.3.6-1.3 1.3v14.6c0 .7.6 1.3 1.3 1.3h80c.7 0 1.3-.6 1.3-1.3V122c0-.7-.6-1.3-1.3-1.3h-80M113.5 88.6C112.8 86.7 90 24.4 89 21.7c-2.2-6.2-5-12.5-13.8-12.5s-11.6 6.4-13.8 12.5C60.3 24.9 37.9 86.2 37 88.6c-.2.7.1 1.4.7 1.7L51 95.4c.7.2 1.4-.1 1.6-.8.2-.6 5.2-14.2 5.7-15.7H92c.6 1.5 5.5 15.1 5.7 15.7.2.7 1 1 1.6.8.7-.2 12.5-4.8 13.3-5.1.8-.3 1.1-1.1.9-1.7zM63.8 63.8l11.4-34.2h.1l11.4 34.2H63.8z"/></g></svg>